####
#
# OBJ File Generated by Meshlab
#
####
# Object mandible_teeth_plane_coll.obj
#
# Vertices: 8
# Faces: 12
#
####

vn 1.836931 1.571085 1.249223
v 0.081475 0.029030 -0.110391
vn 1.837613 -1.570156 1.250691
v 0.081478 -0.031746 -0.110373
vn -1.249792 1.571458 1.837028
v 0.059356 0.029030 -0.106183
vn -1.249894 -1.570489 1.838625
v 0.059359 -0.031746 -0.106165
vn 1.249207 1.570486 -1.836891
v 0.081288 0.029030 -0.111373
vn 1.249104 -1.571457 -1.835300
v 0.081291 -0.031747 -0.111355
vn -1.836342 1.570157 -1.249337
v 0.059169 0.029030 -0.107165
vn -1.835660 -1.571081 -1.247862
v 0.059172 -0.031747 -0.107147
# 8 vertices, 0 vertices normals


usemtl material_0
vt 0.000000 1.000000
vt 1.000000 0.000000
vt 0.000000 0.000000
f 3/1/3 2/2/2 1/3/1
f 6/2/6 7/1/7 5/3/5
f 2/2/2 5/3/5 1/3/1
vt 1.000000 1.000000
f 4/4/4 6/2/6 2/2/2
f 1/3/1 7/1/7 3/1/3
f 3/1/3 8/4/8 4/4/4
f 3/1/3 4/4/4 2/2/2
f 2/2/2 6/2/6 5/3/5
f 4/4/4 8/4/8 6/2/6
f 1/3/1 5/3/5 7/1/7
f 3/1/3 7/1/7 8/4/8
f 6/2/6 8/4/8 7/1/7
# 12 faces, 4 coords texture

# End of File
