mtllib material.mtl
usemtl material_0
v 0.08147500 0.02903000 -0.11039100
v 0.08147800 -0.03174600 -0.11037300
v 0.05935600 0.02903000 -0.10618300
v 0.05935900 -0.03174600 -0.10616500
v 0.08128800 0.02903000 -0.11137300
v 0.08129100 -0.03174700 -0.11135500
v 0.05916900 0.02903000 -0.10716500
v 0.05917200 -0.03174700 -0.10714700
vn 1.83693100 1.57108500 1.24922300
vn 1.83761300 -1.57015600 1.25069100
vn -1.24979200 1.57145800 1.83702800
vn -1.24989400 -1.57048900 1.83862500
vn 1.24920700 1.57048600 -1.83689100
vn 1.24910400 -1.57145700 -1.83530000
vn -1.83634200 1.57015700 -1.24933700
vn -1.83566000 -1.57108100 -1.24786200
vt 0.00000000 0.00000000
vt 1.00000000 0.00000000
vt 0.00000000 1.00000000
vt 1.00000000 1.00000000
vt 0.00000000 0.00000000
vt 1.00000000 0.00000000
vt 0.00000000 1.00000000
vt 1.00000000 1.00000000
f 3/3/3 2/2/2 1/1/1
f 6/6/6 7/7/7 5/5/5
f 2/2/2 5/5/5 1/1/1
f 4/4/4 6/6/6 2/2/2
f 1/1/1 7/7/7 3/3/3
f 3/3/3 8/8/8 4/4/4
f 3/3/3 4/4/4 2/2/2
f 2/2/2 6/6/6 5/5/5
f 4/4/4 8/8/8 6/6/6
f 1/1/1 5/5/5 7/7/7
f 3/3/3 7/7/7 8/8/8
f 6/6/6 8/8/8 7/7/7

